<svg width="273" height="74" viewBox="0 0 273 74" fill="none" xmlns="http://www.w3.org/2000/svg">
<path d="M270.87 55.9574H267.726L265.281 56.8062L262.37 58.3624L260.158 60.343L257.596 63.8798L256.781 66.0019L256.548 68.124V70.5291V73.0756L264.815 64.3043L256.548 73.5H263.651L265.63 71.6609L266.613 70.1046L267.959 67.8411L269.175 65.2946L270.521 61.8992L271.219 58.7868L271.569 55.9574H270.87Z" fill="url(#paint0_linear_123_22)"/>
<path d="M78.6884 73.5L85.5 71.2364L87.8288 69.9632L89.6918 68.124L91.6712 65.1531L92.6027 63.1725L92.9521 61.0504L93.1849 58.6453V56.8062V54.5426H90.1575L87.8288 54.8256L85.8493 55.3915L84.5685 56.0988L83.0548 57.2306L81.5411 58.6453L80.4932 59.9186L79.6781 61.0504L78.863 62.6066L78.048 64.0213L77.6986 65.1531L77.3493 66.1434V66.4264V67.2752V69.6802L77.6986 72.5804H78.048L78.3973 73.5H78.6884Z" fill="url(#paint1_linear_123_22)"/>
<path d="M76.8836 58.5039L77.3493 57.5136L77.5822 55.5329L77.3493 53.2694L76.7671 51.5717L75.8356 49.874L74.9041 48.3178L74.5548 48.0349L73.5069 49.874L72.6918 51.9961L72.3425 53.9767L72.226 55.6744L72.3425 57.2306L73.0411 58.6453L74.3219 59.6357H75.314L76.8836 58.5039Z" fill="url(#paint2_linear_123_22)"/>
<path d="M9.23288 70.2461L10.1644 71.5194L11.6781 73.5H20.8767H21.1096V72.2267V70.2461L20.6438 67.6996L20.0616 65.0116L19.1301 62.4651L17.6164 60.2015L15.1712 58.0795L12.3767 56.2403L10.1644 55.5329L7.36986 55.25H4.92466V55.8159L5.15753 59.2112L5.50685 62.0407L6.43836 65.0116L7.36986 66.9922L8.30137 68.6899L9.23288 70.2461Z" fill="url(#paint3_linear_123_22)"/>
<path d="M26.4257 51.7742L26.0232 57.093V57.5136L26.4201 51.8546L26.4257 51.7742Z" fill="url(#paint4_linear_123_22)"/>
<path d="M63.3767 73.5L62.9692 66.0727L25.4178 66.1434L24.8356 73.5H63.3767Z" fill="#485935"/>
<path d="M76.5342 28.3702L76.579 27.6628L61.2808 42.2345L62.5616 58.6453L79.911 33.1802L76.5342 28.3702Z" fill="#485935"/>
<path d="M93.4178 33.1802L89.9247 30.0678L86.2329 26.5L83.5 23.5L81 20L77.9315 14.7888L77.5822 11.8178L76.579 27.6628L76.5342 28.3702L79.911 33.1802H93.4178Z" fill="#485935"/>
<path d="M22.7397 48.8837L20.411 45.9128L18.0822 42.2345L16.2192 38.4147L14.4726 34.4535L13.8904 30.9167V25.5407L14.2397 19.8818L15.4041 15.9205L17.2671 12.1008L21.1096 7.2907L24.8356 4.74419L27.7466 4.17829H29.0274H30.0753H31.1233C31.4959 4.17829 33.0639 4.46124 33.8014 4.46124L36.0137 5.31008L38.3425 6.72481L40.4384 8.56395C40.9041 9.12984 41.4674 10.1967 41.7192 10.686C42.3014 11.8178 42.7283 12.8081 43.1164 13.7984L44.0479 17.7597L44.3973 20.3062L44.863 23.7015L45.2123 26.9554L45.6781 29.5019L46.3767 30.2093L47.5411 31.3411H48.1233H49.2352H49.5205L49.9863 30.7752L50.5685 29.0775V27.2384V24.6919L50.2774 22.2868L49.9863 19.8818L48.7055 13.7984L46.8425 8.8469L44.3973 5.7345L41.3699 2.90504L38.4589 1.20736L34.9658 0.5H29.3767L25.3014 1.63178L22.1575 2.90504L19.9452 4.74419L17.9658 6.44186L15.8699 8.70543L14.3562 11.1105L12.9589 13.7984L11.7945 17.3353L11.3288 19.8818L10.9795 23.7015V26.531V30.2093L11.3288 33.4632L12.4932 36.2926L13.774 40.1124L15.4041 43.3663L18.4315 48.1764L21.1096 52.2791L23.089 54.9671L26.0232 57.093L26.4257 51.7742L22.7397 48.8837Z" fill="#485935"/>
<path d="M44.863 23.7015L44.0479 22.1453L39.7397 22.5698L36.0137 22.9942L31.7055 23.7015L29.0274 24.2674L30.0753 26.1066L32.8699 26.6725L37.5274 26.9554L40.6712 27.2384L45.2123 26.9554L44.863 23.7015Z" fill="#485935"/>
<path d="M56.1575 26.531L57.6712 26.1066L59.8836 25.3992L58.4863 23.7015L56.1575 22.8527L53.2466 22.1453L50.2774 22.2868L50.5685 24.6919V27.2384H51.8493L53.2466 26.9554L54.8767 26.6725L56.1575 26.531Z" fill="#485935"/>
<path d="M61.1986 41.2442L60.8464 37H27.5L27.1644 41.2442H61.1986Z" fill="#93A267"/>
<path d="M62.9692 66.0727L62.5616 58.6453L61.2808 42.2345L61.1986 41.2442H27.1644L26.4257 51.7742L26.4201 51.8546L26.0232 57.5136L25.4178 66.1434L62.9692 66.0727Z" fill="#93A267"/>
<path d="M57.6712 26.1066L56.1575 26.531L54.8767 26.6725L53.2466 26.9554L51.8493 27.2384H50.5685V29.0775L49.9863 30.7752L49.5205 31.3411H49.2352H48.1233H47.5411L46.3767 30.2093L45.6781 29.5019L45.2123 28.2287V26.9554L40.6712 27.2384L37.5274 26.9554L32.8699 26.6725L30.0753 26.1066L29.0274 24.2674L27.5 37H60.8464L59.8836 25.3992L57.6712 26.1066Z" fill="#93A267"/>
<path d="M12.1438 63.031L16.6267 68.2655L21.1096 73.5M93.4178 33.1802L89.9247 30.0678L86.2329 26.5L83.5 23.5L81 20L77.9315 14.7888L77.5822 11.8178M93.4178 33.1802L94.1164 32.4729M93.4178 33.1802H79.911M94.1164 32.4729L94.3166 32.1258M94.1164 32.4729C94.1941 32.3786 94.2562 32.2748 94.3493 32.0484M94.3493 32.0484C94.3881 32.0484 94.4425 31.8221 94.3493 32.0484ZM94.3493 32.0484L94.6986 31.0581L94.8151 30.0678L94.5822 28.7946L94.4658 27.9457L94 26.3895L93.0685 24.2674L91.6712 21.5795L90.1575 19.4574L88.5274 17.6182L87.0137 16.062L85.2671 14.5058L84.2192 13.657L83.0548 12.8081L81.8257 12.1479L81.0106 11.7235L80.3767 11.3934L79.2123 11.1105H78.7466H78.3973L77.9315 11.2519L77.5822 11.8178M77.5822 11.8178L76.579 27.6628M76.579 27.6628L76.5342 28.3702L79.911 33.1802M76.579 27.6628L61.2808 42.2345M79.911 33.1802L62.5616 58.6453M256.548 73.0756V70.5291V68.124L256.781 66.0019L257.596 63.8798L260.158 60.343L262.37 58.3624L265.281 56.8062L267.726 55.9574H270.87H271.569L271.219 58.7868L270.521 61.8992L269.175 65.2946L267.959 67.8411L266.613 70.1046L265.63 71.6609L263.651 73.5M256.548 73.0756L264.815 64.3043L256.548 73.5M256.548 73.0756V73.5M256.548 73.5H263.651M256.548 73.5H272.384H78.6884M263.651 73.5H272.5M78.6884 73.5L85.5 71.2364L87.8288 69.9632L89.6918 68.124L91.6712 65.1531L92.6027 63.1725L92.9521 61.0504L93.1849 58.6453V56.8062V54.5426H90.1575L87.8288 54.8256L85.8493 55.3915L84.5685 56.0988L83.0548 57.2306L81.5411 58.6453L80.4932 59.9186L79.6781 61.0504L78.863 62.6066L78.048 64.0213L77.6986 65.1531L77.3493 66.1434V66.4264M78.6884 73.5H78.3973M75.314 59.6357H74.3219L73.0411 58.6453L72.3425 57.2306L72.226 55.6744L72.3425 53.9767L72.6918 51.9961L73.5069 49.874L74.5548 48.0349L74.9041 48.3178L75.8356 49.874L76.7671 51.5717L77.3493 53.2694L77.5822 55.5329L77.3493 57.5136L76.8836 58.5039L75.314 59.6357ZM75.314 59.6357L74.9041 53.9767M75.314 59.6357L76.1849 72.5804H77.6986M78.048 72.5804L86.548 62.6066M78.048 72.5804H77.6986M78.048 72.5804L78.3973 73.5M77.6986 72.5804L77.3493 69.6802M78.3973 73.5H63.3767M63.3767 73.5L62.9692 66.0727M63.3767 73.5H24.8356M62.9692 66.0727L62.5616 58.6453M62.9692 66.0727L25.4178 66.1434M62.5616 58.6453L61.2808 42.2345M61.2808 42.2345L61.1986 41.2442M61.1986 41.2442L60.8464 37M61.1986 41.2442H27.1644M27.7466 4.17829L24.8356 4.74419L21.1096 7.2907L17.2671 12.1008L15.4041 15.9205L14.2397 19.8818L13.8904 25.5407V30.9167L14.4726 34.4535L16.2192 38.4147L18.0822 42.2345L20.411 45.9128L22.7397 48.8837L26.4257 51.7742M27.7466 4.17829C28.0834 4.17829 28.5483 4.17829 29.0274 4.17829M27.7466 4.17829H29.0274M29.0274 4.17829H30.0753H31.1233M29.0274 4.17829C29.9286 4.17829 30.88 4.17829 31.1233 4.17829M31.1233 4.17829C31.4959 4.17829 33.0639 4.46124 33.8014 4.46124L36.0137 5.31008L38.3425 6.72481L40.4384 8.56395C40.9041 9.12984 41.4674 10.1967 41.7192 10.686C42.3014 11.8178 42.7283 12.8081 43.1164 13.7984L44.0479 17.7597L44.3973 20.3062L44.863 23.7015M44.863 23.7015L44.0479 22.1453L39.7397 22.5698L36.0137 22.9942L31.7055 23.7015L29.0274 24.2674M44.863 23.7015L45.2123 26.9554M29.0274 24.2674L30.0753 26.1066L32.8699 26.6725L37.5274 26.9554L40.6712 27.2384L45.2123 26.9554M29.0274 24.2674L27.5 37M45.2123 26.9554V28.2287L45.6781 29.5019M45.2123 26.9554L45.6781 29.5019M45.6781 29.5019L46.3767 30.2093L47.5411 31.3411M47.5411 31.3411C47.5411 31.3411 47.6575 31.3411 48.1233 31.3411M47.5411 31.3411H49.2352M47.5411 31.3411H48.1233M48.1233 31.3411C48.4662 31.3411 48.9143 31.3411 49.2352 31.3411M48.1233 31.3411H49.2352M49.2352 31.3411C49.3502 31.3411 49.4489 31.3411 49.5205 31.3411M49.2352 31.3411H49.5205M49.5205 31.3411L49.9863 30.7752L50.5685 29.0775V27.2384M50.5685 27.2384H51.8493L53.2466 26.9554L54.8767 26.6725L56.1575 26.531L57.6712 26.1066L59.8836 25.3992M50.5685 27.2384V24.6919L50.2774 22.2868M21.1096 73.5H23.5548H24.8356M21.1096 73.5V72.2267V70.2461L20.6438 67.6996L20.0616 65.0116L19.1301 62.4651L17.6164 60.2015L15.1712 58.0795L12.3767 56.2403L10.1644 55.5329L7.36986 55.25H4.92466V55.8159L5.15753 59.2112L5.50685 62.0407L6.43836 65.0116L7.36986 66.9922L8.30137 68.6899L9.23288 70.2461L10.1644 71.5194L11.6781 73.5M21.1096 73.5H20.8767H11.6781M59.8836 25.3992L58.4863 23.7015L56.1575 22.8527L53.2466 22.1453L50.2774 22.2868M59.8836 25.3992L60.8464 37M50.2774 22.2868L49.9863 19.8818L48.7055 13.7984L46.8425 8.8469L44.3973 5.7345L41.3699 2.90504L38.4589 1.20736L34.9658 0.5H29.3767L25.3014 1.63178L22.1575 2.90504L19.9452 4.74419L17.9658 6.44186L15.8699 8.70543L14.3562 11.1105L12.9589 13.7984L11.7945 17.3353L11.3288 19.8818L10.9795 23.7015V26.531V30.2093L11.3288 33.4632L12.4932 36.2926L13.774 40.1124L15.4041 43.3663L18.4315 48.1764L21.1096 52.2791L23.089 54.9671L26.0232 57.093M77.3493 66.4264V69.6802M77.3493 66.4264V67.2752V69.6802M60.8464 37H27.5M26.4257 51.7742L26.0232 57.093M26.4257 51.7742L26.4201 51.8546M26.4257 51.7742L27.1644 41.2442M27.5 37L27.1644 41.2442M26.0232 57.093V57.5136M27.1644 41.2442L26.4201 51.8546M26.0232 57.5136L25.4178 66.1434M26.0232 57.5136L26.4201 51.8546M25.4178 66.1434L24.8356 73.5M11.6781 73.5H0.5" stroke="#042C00" stroke-linecap="round" stroke-linejoin="round"/>
<path d="M108.508 36.86C107.348 36.86 106.348 36.692 105.508 36.356C104.668 36.012 103.98 35.56 103.444 35C102.908 34.432 102.512 33.812 102.256 33.14L103.576 32.468C103.768 33.044 104.08 33.564 104.512 34.028C104.952 34.484 105.508 34.844 106.18 35.108C106.86 35.372 107.652 35.504 108.556 35.504C109.524 35.504 110.348 35.352 111.028 35.048C111.716 34.736 112.24 34.296 112.6 33.728C112.968 33.152 113.152 32.468 113.152 31.676C113.152 30.836 112.956 30.184 112.564 29.72C112.18 29.256 111.656 28.928 110.992 28.736C110.328 28.536 109.58 28.42 108.748 28.388C108.164 28.364 107.748 28.348 107.5 28.34C107.252 28.324 107.084 28.316 106.996 28.316C106.916 28.316 106.84 28.316 106.768 28.316V26.972C106.824 26.972 106.976 26.972 107.224 26.972C107.472 26.972 107.736 26.972 108.016 26.972C108.304 26.964 108.532 26.956 108.7 26.948C109.924 26.884 110.876 26.552 111.556 25.952C112.236 25.352 112.576 24.56 112.576 23.576C112.576 22.512 112.204 21.684 111.46 21.092C110.724 20.5 109.776 20.204 108.616 20.204C107.512 20.204 106.596 20.472 105.868 21.008C105.14 21.544 104.536 22.276 104.056 23.204L102.796 22.46C103.332 21.396 104.092 20.532 105.076 19.868C106.068 19.196 107.26 18.86 108.652 18.86C109.372 18.86 110.056 18.96 110.704 19.16C111.36 19.36 111.936 19.656 112.432 20.048C112.936 20.44 113.332 20.928 113.62 21.512C113.908 22.096 114.052 22.776 114.052 23.552C114.052 24.536 113.824 25.384 113.368 26.096C112.92 26.8 112.356 27.316 111.676 27.644C112.588 27.9 113.308 28.368 113.836 29.048C114.364 29.72 114.628 30.608 114.628 31.712C114.628 32.752 114.38 33.66 113.884 34.436C113.396 35.204 112.692 35.8 111.772 36.224C110.86 36.648 109.772 36.86 108.508 36.86ZM117.055 36.5V19.22H127.735V20.564H118.435V27.128H126.295V28.472H118.435V35.156H127.735V36.5H117.055ZM129.425 36.5V35.204C129.889 35.26 130.265 35.252 130.553 35.18C130.849 35.1 131.089 34.92 131.273 34.64C131.457 34.36 131.613 33.936 131.741 33.368C131.877 32.8 132.013 32.044 132.149 31.1C132.293 30.172 132.417 29.264 132.521 28.376C132.625 27.48 132.717 26.564 132.797 25.628C132.877 24.684 132.949 23.688 133.013 22.64C133.077 21.592 133.133 20.452 133.181 19.22H143.861V36.5H142.481V20.564H134.561C134.505 21.492 134.449 22.408 134.393 23.312C134.337 24.208 134.273 25.112 134.201 26.024C134.129 26.936 134.041 27.872 133.937 28.832C133.841 29.784 133.713 30.788 133.553 31.844C133.441 32.596 133.305 33.3 133.145 33.956C132.993 34.604 132.773 35.156 132.485 35.612C132.197 36.068 131.809 36.38 131.321 36.548C130.833 36.724 130.201 36.708 129.425 36.5ZM147.219 36.5V19.22H157.899V20.564H148.599V27.128H156.459V28.472H148.599V35.156H157.899V36.5H147.219ZM160.789 36.5V19.22H162.169V27.188H172.177V19.22H173.569V36.5H172.177V28.532H162.169V36.5H160.789ZM176.938 36.5V19.22H178.318V25.952H183.454C183.622 25.952 183.802 25.96 183.994 25.976C184.186 25.984 184.39 26.008 184.606 26.048C185.47 26.184 186.21 26.496 186.826 26.984C187.45 27.464 187.926 28.072 188.254 28.808C188.59 29.536 188.758 30.344 188.758 31.232C188.758 32.112 188.594 32.92 188.266 33.656C187.938 34.384 187.462 34.992 186.838 35.48C186.222 35.96 185.478 36.268 184.606 36.404C184.39 36.436 184.186 36.46 183.994 36.476C183.802 36.492 183.622 36.5 183.454 36.5H176.938ZM178.318 35.156H183.43C183.566 35.156 183.73 35.148 183.922 35.132C184.114 35.116 184.302 35.088 184.486 35.048C185.118 34.92 185.642 34.668 186.058 34.292C186.474 33.908 186.786 33.452 186.994 32.924C187.202 32.388 187.306 31.824 187.306 31.232C187.306 30.64 187.202 30.076 186.994 29.54C186.786 29.004 186.474 28.548 186.058 28.172C185.642 27.788 185.118 27.532 184.486 27.404C184.302 27.364 184.114 27.34 183.922 27.332C183.73 27.316 183.566 27.308 183.43 27.308H178.318V35.156ZM190.438 36.5V19.22H191.818V36.5H190.438ZM195.196 36.5V19.22H196.588V34.04L206.596 19.22H207.988V36.5H206.596V21.656L196.588 36.5H195.196ZM201.784 17.66C201.248 17.66 200.76 17.528 200.32 17.264C199.88 17 199.528 16.648 199.264 16.208C199 15.768 198.868 15.28 198.868 14.744H200.068C200.068 15.208 200.236 15.612 200.572 15.956C200.916 16.292 201.32 16.46 201.784 16.46C202.264 16.46 202.668 16.292 202.996 15.956C203.332 15.612 203.5 15.208 203.5 14.744H204.7C204.7 15.28 204.568 15.768 204.304 16.208C204.048 16.648 203.696 17 203.248 17.264C202.808 17.528 202.32 17.66 201.784 17.66ZM103.18 69.5V52.22H104.56V60.428L112.78 52.22H114.604L106.336 60.524L115.324 69.5H113.476L104.56 60.668V69.5H103.18ZM115.808 69.5L121.928 52.22H123.644L129.764 69.5H128.3L122.42 52.94H123.116L117.272 69.5H115.808ZM118.34 65.156V63.848H127.22V65.156H118.34ZM131.628 69.5V68.204C132.092 68.26 132.468 68.252 132.756 68.18C133.052 68.1 133.292 67.92 133.476 67.64C133.66 67.36 133.816 66.936 133.944 66.368C134.08 65.8 134.216 65.044 134.352 64.1C134.496 63.172 134.62 62.264 134.724 61.376C134.828 60.48 134.92 59.564 135 58.628C135.08 57.684 135.152 56.688 135.216 55.64C135.28 54.592 135.336 53.452 135.384 52.22H146.064V69.5H144.684V53.564H136.764C136.708 54.492 136.652 55.408 136.596 56.312C136.54 57.208 136.476 58.112 136.404 59.024C136.332 59.936 136.244 60.872 136.14 61.832C136.044 62.784 135.916 63.788 135.756 64.844C135.644 65.596 135.508 66.3 135.348 66.956C135.196 67.604 134.976 68.156 134.688 68.612C134.4 69.068 134.012 69.38 133.524 69.548C133.036 69.724 132.404 69.708 131.628 69.5ZM149.422 69.5V52.22H160.102V53.564H150.802V60.128H158.662V61.472H150.802V68.156H160.102V69.5H149.422ZM162.993 69.5V52.22H164.373V60.188H174.381V52.22H175.773V69.5H174.381V61.532H164.373V69.5H162.993ZM178.385 72.38V68.156C179.089 68.156 179.649 67.976 180.065 67.616C180.481 67.256 180.797 66.78 181.013 66.188C181.229 65.588 181.389 64.928 181.493 64.208C181.605 63.488 181.697 62.764 181.769 62.036C181.889 60.948 181.985 59.9 182.057 58.892C182.129 57.884 182.189 56.844 182.237 55.772C182.293 54.692 182.353 53.508 182.417 52.22H192.869V68.156H194.093V72.38H192.701V69.5H179.765V72.38H178.385ZM181.373 68.156H191.489V53.564H183.737C183.689 54.58 183.637 55.58 183.581 56.564C183.533 57.54 183.473 58.524 183.401 59.516C183.329 60.5 183.241 61.516 183.137 62.564C183.041 63.5 182.929 64.332 182.801 65.06C182.681 65.78 182.509 66.4 182.285 66.92C182.061 67.432 181.757 67.844 181.373 68.156ZM195.543 69.5L201.663 52.22H203.379L209.499 69.5H208.035L202.155 52.94H202.851L197.007 69.5H195.543ZM198.075 65.156V63.848H206.955V65.156H198.075ZM211.649 69.5V52.22H218.165C218.333 52.22 218.513 52.228 218.705 52.244C218.905 52.252 219.113 52.276 219.329 52.316C220.193 52.452 220.933 52.764 221.549 53.252C222.173 53.732 222.649 54.34 222.977 55.076C223.305 55.804 223.469 56.608 223.469 57.488C223.469 58.376 223.305 59.188 222.977 59.924C222.649 60.652 222.173 61.26 221.549 61.748C220.933 62.228 220.193 62.536 219.329 62.672C219.113 62.704 218.905 62.728 218.705 62.744C218.513 62.76 218.333 62.768 218.165 62.768H213.029V69.5H211.649ZM213.029 61.412H218.141C218.285 61.412 218.449 61.404 218.633 61.388C218.825 61.372 219.017 61.348 219.209 61.316C219.833 61.188 220.353 60.936 220.769 60.56C221.185 60.176 221.497 59.716 221.705 59.18C221.913 58.644 222.017 58.08 222.017 57.488C222.017 56.896 221.913 56.336 221.705 55.808C221.497 55.272 221.185 54.816 220.769 54.44C220.353 54.056 219.833 53.8 219.209 53.672C219.017 53.632 218.825 53.604 218.633 53.588C218.449 53.572 218.285 53.564 218.141 53.564H213.029V61.412ZM225.875 69.5V52.22H227.255V58.952H232.391C232.559 58.952 232.739 58.96 232.931 58.976C233.123 58.984 233.327 59.008 233.543 59.048C234.407 59.184 235.147 59.496 235.763 59.984C236.387 60.464 236.863 61.072 237.191 61.808C237.527 62.536 237.695 63.344 237.695 64.232C237.695 65.112 237.531 65.92 237.203 66.656C236.875 67.384 236.399 67.992 235.775 68.48C235.159 68.96 234.415 69.268 233.543 69.404C233.327 69.436 233.123 69.46 232.931 69.476C232.739 69.492 232.559 69.5 232.391 69.5H225.875ZM227.255 68.156H232.367C232.503 68.156 232.667 68.148 232.859 68.132C233.051 68.116 233.239 68.088 233.423 68.048C234.055 67.92 234.579 67.668 234.995 67.292C235.411 66.908 235.723 66.452 235.931 65.924C236.139 65.388 236.243 64.824 236.243 64.232C236.243 63.64 236.139 63.076 235.931 62.54C235.723 62.004 235.411 61.548 234.995 61.172C234.579 60.788 234.055 60.532 233.423 60.404C233.239 60.364 233.051 60.34 232.859 60.332C232.667 60.316 232.503 60.308 232.367 60.308H227.255V68.156Z" fill="#013204"/>
<circle cx="82" cy="16" r="0.5" fill="#042C00"/>
<circle cx="90" cy="25" r="0.5" fill="#042C00"/>
<circle cx="92" cy="28" r="0.5" fill="#042C00"/>
<circle cx="84" cy="18" r="0.5" fill="#042C00"/>
<circle cx="88" cy="23" r="0.5" fill="#042C00"/>
<circle cx="86" cy="21" r="0.5" fill="#042C00"/>
<defs>
<linearGradient id="paint0_linear_123_22" x1="0.5" y1="37" x2="272.5" y2="37" gradientUnits="userSpaceOnUse">
<stop offset="0.00480769" stop-color="#CADBB7"/>
<stop offset="0.139423" stop-color="#93A267"/>
</linearGradient>
<linearGradient id="paint1_linear_123_22" x1="0.5" y1="37" x2="272.5" y2="37" gradientUnits="userSpaceOnUse">
<stop stop-color="#CADBB7"/>
<stop offset="0.432692" stop-color="#93A267"/>
</linearGradient>
<linearGradient id="paint2_linear_123_22" x1="0.5" y1="37" x2="272.5" y2="37" gradientUnits="userSpaceOnUse">
<stop offset="0.00480769" stop-color="#CADBB7"/>
<stop offset="0.139423" stop-color="#93A267"/>
</linearGradient>
<linearGradient id="paint3_linear_123_22" x1="0.5" y1="37" x2="272.5" y2="37" gradientUnits="userSpaceOnUse">
<stop offset="0.00480769" stop-color="#CADBB7"/>
<stop offset="0.139423" stop-color="#93A267"/>
</linearGradient>
<linearGradient id="paint4_linear_123_22" x1="0.5" y1="37" x2="272.5" y2="37" gradientUnits="userSpaceOnUse">
<stop offset="0.00480769" stop-color="#CADBB7"/>
<stop offset="0.139423" stop-color="#93A267"/>
</linearGradient>
</defs>
</svg>
